<?xml version="1.0" encoding="iso-8859-1"?>
<!-- Generator: Adobe Illustrator 16.2.0, SVG Export Plug-In . SVG Version: 6.00 Build 0)  -->
<!DOCTYPE svg PUBLIC "-//W3C//DTD SVG 1.1//EN" "http://www.w3.org/Graphics/SVG/1.1/DTD/svg11.dtd">
<svg version="1.1" id="&#x421;&#x43B;&#x43E;&#x439;_1"
	 xmlns="http://www.w3.org/2000/svg" xmlns:xlink="http://www.w3.org/1999/xlink" x="0px" y="0px" width="30px" height="30px"
	 viewBox="0 0 30 30" style="enable-background:new 0 0 30 30;" xml:space="preserve">
<path style="fill:#D9D9D9;" d="M24.04,0H5.96C2.668,0,0,2.668,0,5.96v18.079C0,27.332,2.668,30,5.96,30h18.08
	c3.291,0,5.96-2.668,5.96-5.961V5.96C30,2.668,27.331,0,24.04,0z M20.535,18.259c-0.586,0.586-1.535,0.586-2.121,0l-3.388-3.388
	l-3.439,3.439c-0.293,0.293-0.677,0.439-1.061,0.439s-0.768-0.146-1.061-0.439c-0.586-0.586-0.586-1.536,0-2.121l4.5-4.5
	c0.585-0.586,1.536-0.586,2.121,0l4.449,4.448C21.121,16.724,21.121,17.673,20.535,18.259z"/>
</svg>
